<?xml version="1.0" encoding="UTF-8" standalone="no"?>
<!-- Created with Inkscape (http://www.inkscape.org/) -->

<svg
   width="8.3316193mm"
   height="6.1956596mm"
   viewBox="0 0 8.3316193 6.1956596"
   version="1.1"
   id="svg8607"
   inkscape:version="1.2.2 (1:1.2.2+202212051550+b0a8486541)"
   sodipodi:docname="switch.svg"
   xmlns:inkscape="http://www.inkscape.org/namespaces/inkscape"
   xmlns:sodipodi="http://sodipodi.sourceforge.net/DTD/sodipodi-0.dtd"
   xmlns="http://www.w3.org/2000/svg"
   xmlns:svg="http://www.w3.org/2000/svg">
  <sodipodi:namedview
     id="namedview8609"
     pagecolor="#ffffff"
     bordercolor="#666666"
     borderopacity="1.0"
     inkscape:showpageshadow="2"
     inkscape:pageopacity="0.0"
     inkscape:pagecheckerboard="0"
     inkscape:deskcolor="#d1d1d1"
     inkscape:document-units="mm"
     showgrid="false"
     inkscape:zoom="0.96123036"
     inkscape:cx="-1.5605"
     inkscape:cy="131.082"
     inkscape:window-width="2560"
     inkscape:window-height="1403"
     inkscape:window-x="2560"
     inkscape:window-y="0"
     inkscape:window-maximized="1"
     inkscape:current-layer="layer1" />
  <defs
     id="defs8604">
    <clipPath
       clipPathUnits="userSpaceOnUse"
       id="clipPath8180">
      <g
         id="g8184">
        <path
           d="m 58,324 h 6.9375 v 2 H 58 Z m 0,0"
           id="path8182" />
      </g>
    </clipPath>
    <clipPath
       clipPathUnits="userSpaceOnUse"
       id="clipPath8169">
      <g
         id="g8173">
        <path
           d="M 41.320312,324 H 48 v 2 h -6.679688 z m 0,0"
           id="path8171" />
      </g>
    </clipPath>
    <clipPath
       clipPathUnits="userSpaceOnUse"
       id="clipPath7921">
      <g
         id="g7925">
        <path
           d="m 58,339 h 6.9375 v 1.92187 H 58 Z m 0,0"
           id="path7923" />
      </g>
    </clipPath>
    <clipPath
       clipPathUnits="userSpaceOnUse"
       id="clipPath7915">
      <g
         id="g7919">
        <path
           d="m 58,339 h 6.9375 v 1.92187 H 58 Z m 0,0"
           id="path7917" />
      </g>
    </clipPath>
    <clipPath
       clipPathUnits="userSpaceOnUse"
       id="clipPath7903">
      <g
         id="g7907">
        <path
           d="M 41.320312,339 H 48 v 1.92187 h -6.679688 z m 0,0"
           id="path7905" />
      </g>
    </clipPath>
    <clipPath
       clipPathUnits="userSpaceOnUse"
       id="clipPath8147">
      <g
         id="g8151">
        <path
           d="m 44,323.35937 h 19 v 17.5625 H 44 Z m 0,0"
           id="path8149" />
      </g>
    </clipPath>
    <clipPath
       clipPathUnits="userSpaceOnUse"
       id="clipPath8158">
      <g
         id="g8162">
        <path
           d="m 58,337 h 4 v 3.92187 h -4 z m 0,0"
           id="path8160" />
      </g>
    </clipPath>
    <clipPath
       clipPathUnits="userSpaceOnUse"
       id="clipPath6423">
      <g
         id="g6427">
        <path
           d="m 45,337 h 4 v 3.92187 h -4 z m 0,0"
           id="path6425" />
      </g>
    </clipPath>
    <clipPath
       id="clip8">
      <rect
         x="0"
         y="0"
         width="2"
         height="3"
         id="rect483" />
    </clipPath>
    <clipPath
       id="clip9">
      <path
         d="M 0.128906,0.898438 H 1.296875 V 2.046875 H 0.128906 Z m 0,0"
         id="path480" />
    </clipPath>
    <mask
       id="mask0">
      <g
         filter="url(#alpha)"
         id="g477">
        <rect
           x="0"
           y="0"
           width="396.85001"
           height="660.47198"
           style="fill:#000000;fill-opacity:0.5;stroke:none"
           id="rect475" />
      </g>
    </mask>
    <filter
       id="alpha"
       filterUnits="objectBoundingBox"
       x="0"
       y="0"
       width="1"
       height="1">
      <feColorMatrix
         type="matrix"
         in="SourceGraphic"
         values="0 0 0 0 1 0 0 0 0 1 0 0 0 0 1 0 0 0 1 0"
         id="feColorMatrix472" />
    </filter>
    <clipPath
       id="clipPath8279">
      <rect
         x="0"
         y="0"
         width="2"
         height="3"
         id="rect8277" />
    </clipPath>
    <clipPath
       id="clipPath8283">
      <path
         d="M 0.128906,0.898438 H 1.296875 V 2.046875 H 0.128906 Z m 0,0"
         id="path8281" />
    </clipPath>
    <clipPath
       id="clip10">
      <rect
         x="0"
         y="0"
         width="2"
         height="2"
         id="rect499" />
    </clipPath>
    <clipPath
       id="clip11">
      <path
         d="M 0.101562,0.191406 H 1.273438 V 1.339844 H 0.101562 Z m 0,0"
         id="path496" />
    </clipPath>
    <mask
       id="mask1">
      <g
         filter="url(#alpha)"
         id="g493">
        <rect
           x="0"
           y="0"
           width="396.85001"
           height="660.47198"
           style="fill:#000000;fill-opacity:0.5;stroke:none"
           id="rect491" />
      </g>
    </mask>
    <filter
       id="filter8294"
       filterUnits="objectBoundingBox"
       x="0"
       y="0"
       width="1"
       height="1">
      <feColorMatrix
         type="matrix"
         in="SourceGraphic"
         values="0 0 0 0 1 0 0 0 0 1 0 0 0 0 1 0 0 0 1 0"
         id="feColorMatrix8292" />
    </filter>
    <clipPath
       id="clipPath8298">
      <rect
         x="0"
         y="0"
         width="2"
         height="2"
         id="rect8296" />
    </clipPath>
    <clipPath
       id="clipPath8302">
      <path
         d="M 0.101562,0.191406 H 1.273438 V 1.339844 H 0.101562 Z m 0,0"
         id="path8300" />
    </clipPath>
    <clipPath
       id="clip12">
      <rect
         x="0"
         y="0"
         width="2"
         height="2"
         id="rect515" />
    </clipPath>
    <clipPath
       id="clip13">
      <path
         d="M 0.808594,0.164062 H 1.976562 V 1.3125 H 0.808594 Z m 0,0"
         id="path512" />
    </clipPath>
    <mask
       id="mask2">
      <g
         filter="url(#alpha)"
         id="g509">
        <rect
           x="0"
           y="0"
           width="396.85001"
           height="660.47198"
           style="fill:#000000;fill-opacity:0.5;stroke:none"
           id="rect507" />
      </g>
    </mask>
    <filter
       id="filter8313"
       filterUnits="objectBoundingBox"
       x="0"
       y="0"
       width="1"
       height="1">
      <feColorMatrix
         type="matrix"
         in="SourceGraphic"
         values="0 0 0 0 1 0 0 0 0 1 0 0 0 0 1 0 0 0 1 0"
         id="feColorMatrix8311" />
    </filter>
    <clipPath
       id="clipPath8317">
      <rect
         x="0"
         y="0"
         width="2"
         height="2"
         id="rect8315" />
    </clipPath>
    <clipPath
       id="clipPath8321">
      <path
         d="M 0.808594,0.164062 H 1.976562 V 1.3125 H 0.808594 Z m 0,0"
         id="path8319" />
    </clipPath>
    <clipPath
       id="clip14">
      <rect
         x="0"
         y="0"
         width="3"
         height="3"
         id="rect531" />
    </clipPath>
    <clipPath
       id="clip15">
      <path
         d="M 0.835938,0.867188 H 2.007812 V 2.019531 H 0.835938 Z m 0,0"
         id="path528" />
    </clipPath>
    <mask
       id="mask3">
      <g
         filter="url(#alpha)"
         id="g525">
        <rect
           x="0"
           y="0"
           width="396.85001"
           height="660.47198"
           style="fill:#000000;fill-opacity:0.5;stroke:none"
           id="rect523" />
      </g>
    </mask>
    <filter
       id="filter8332"
       filterUnits="objectBoundingBox"
       x="0"
       y="0"
       width="1"
       height="1">
      <feColorMatrix
         type="matrix"
         in="SourceGraphic"
         values="0 0 0 0 1 0 0 0 0 1 0 0 0 0 1 0 0 0 1 0"
         id="feColorMatrix8330" />
    </filter>
    <clipPath
       id="clipPath8336">
      <rect
         x="0"
         y="0"
         width="3"
         height="3"
         id="rect8334" />
    </clipPath>
    <clipPath
       id="clipPath8340">
      <path
         d="M 0.835938,0.867188 H 2.007812 V 2.019531 H 0.835938 Z m 0,0"
         id="path8338" />
    </clipPath>
    <clipPath
       id="clip16">
      <rect
         x="0"
         y="0"
         width="4"
         height="10"
         id="rect547" />
    </clipPath>
    <clipPath
       id="clip17">
      <path
         d="M 0.0859375,0.34375 H 3.007812 V 9.003906 H 0.0859375 Z m 0,0"
         id="path544" />
    </clipPath>
    <mask
       id="mask4">
      <g
         filter="url(#alpha)"
         id="g541">
        <rect
           x="0"
           y="0"
           width="396.85001"
           height="660.47198"
           style="fill:#000000;fill-opacity:0.550003;stroke:none"
           id="rect539" />
      </g>
    </mask>
    <filter
       id="filter8351"
       filterUnits="objectBoundingBox"
       x="0"
       y="0"
       width="1"
       height="1">
      <feColorMatrix
         type="matrix"
         in="SourceGraphic"
         values="0 0 0 0 1 0 0 0 0 1 0 0 0 0 1 0 0 0 1 0"
         id="feColorMatrix8349" />
    </filter>
    <clipPath
       id="clipPath8355">
      <rect
         x="0"
         y="0"
         width="4"
         height="10"
         id="rect8353" />
    </clipPath>
    <clipPath
       id="clipPath8359">
      <path
         d="M 0.0859375,0.34375 H 3.007812 V 9.003906 H 0.0859375 Z m 0,0"
         id="path8357" />
    </clipPath>
  </defs>
  <g
     inkscape:label="Layer 1"
     inkscape:groupmode="layer"
     id="layer1"
     transform="translate(-71.254024,-113.61023)">
    <path
       style="clip-rule:nonzero;fill:#99979e;fill-opacity:1;fill-rule:nonzero;stroke:none"
       d="m 58.351562,325 c 0,-0.50781 0.492188,-0.92188 1.085938,-0.92188 h 4.414062 c 0.597657,0 1.085938,0.41407 1.085938,0.92188 0,0.50781 -0.488281,0.92187 -1.085938,0.92187 H 59.4375 c -0.59375,0 -1.085938,-0.41406 -1.085938,-0.92187"
       id="path806"
       clip-path="url(#clipPath8180)"
       transform="matrix(0.35277777,0,0,0.35277777,56.677136,-0.46376423)" />
    <path
       style="clip-rule:nonzero;fill:#99979e;fill-opacity:1;fill-rule:nonzero;stroke:none"
       d="m 41.320312,325 c 0,-0.50781 0.488282,-0.92188 1.085938,-0.92188 h 4.410156 c 0.601563,0 1.089844,0.41407 1.089844,0.92188 0,0.50781 -0.488281,0.92187 -1.089844,0.92187 H 42.40625 c -0.597656,0 -1.085938,-0.41406 -1.085938,-0.92187"
       id="path810"
       clip-path="url(#clipPath8169)"
       transform="matrix(0.35277777,0,0,0.35277777,56.677136,-0.46376423)" />
    <path
       style="clip-rule:nonzero;fill:#514f54;fill-opacity:1;fill-rule:nonzero;stroke:none"
       d="m 58.351562,340.34766 c 0,-0.50782 0.492188,-0.92188 1.085938,-0.92188 h 4.414062 c 0.597657,0 1.085938,0.41406 1.085938,0.92188 0,0.50781 -0.488281,0.92187 -1.085938,0.92187 H 59.4375 c -0.59375,0 -1.085938,-0.41406 -1.085938,-0.92187"
       id="path814"
       clip-path="url(#clipPath7921)"
       transform="matrix(0.35277777,0,0,0.35277777,56.677136,-0.46376423)" />
    <path
       style="clip-rule:nonzero;fill:#99979e;fill-opacity:1;fill-rule:nonzero;stroke:none"
       d="m 58.351562,340.34766 c 0,-0.50782 0.492188,-0.92188 1.085938,-0.92188 h 4.414062 c 0.597657,0 1.085938,0.41406 1.085938,0.92188 0,0.50781 -0.488281,0.92187 -1.085938,0.92187 H 59.4375 c -0.59375,0 -1.085938,-0.41406 -1.085938,-0.92187"
       id="path816"
       clip-path="url(#clipPath7915)"
       transform="matrix(0.35277777,0,0,0.35277777,56.677136,-0.46376423)" />
    <path
       style="clip-rule:nonzero;fill:#99979e;fill-opacity:1;fill-rule:nonzero;stroke:none"
       d="m 41.402344,340.34766 c 0,-0.50782 0.488281,-0.92188 1.085937,-0.92188 h 4.410157 c 0.601562,0 1.089843,0.41406 1.089843,0.92188 0,0.50781 -0.488281,0.92187 -1.089843,0.92187 h -4.410157 c -0.597656,0 -1.085937,-0.41406 -1.085937,-0.92187"
       id="path820"
       clip-path="url(#clipPath7903)"
       transform="matrix(0.35277777,0,0,0.35277777,56.677136,-0.46376423)" />
    <path
       style="clip-rule:nonzero;fill:#6e6b6e;fill-opacity:1;fill-rule:nonzero;stroke:none"
       d="m 45.597656,342.05469 c -0.839844,0 -1.527344,-0.6875 -1.527344,-1.52344 v -15.64453 c 0,-0.83985 0.6875,-1.52735 1.527344,-1.52735 h 15.648438 c 0.839844,0 1.519531,0.6875 1.519531,1.52735 v 15.64453 c 0,0.83984 -0.679687,1.52344 -1.519531,1.52344 z m 0,0"
       id="path824"
       clip-path="url(#clipPath8147)"
       transform="matrix(0.35277777,0,0,0.35277777,56.677136,-0.46376423)" />
    <path
       style="fill:#0f0c0c;fill-opacity:1;fill-rule:nonzero;stroke:none;stroke-width:0.352778"
       d="m 78.430846,114.57211 c 0,0.31419 -0.256315,0.5705 -0.571885,0.5705 -0.315571,0 -0.570508,-0.25631 -0.570508,-0.5705 0,-0.31695 0.254937,-0.57189 0.570508,-0.57189 0.31557,0 0.571885,0.25494 0.571885,0.57189"
       id="path828" />
    <path
       style="clip-rule:nonzero;fill:#0f0c0c;fill-opacity:1;fill-rule:nonzero;stroke:none"
       d="m 61.636719,339.375 c 0,0.89453 -0.726563,1.62109 -1.621094,1.62109 -0.894531,0 -1.617187,-0.72656 -1.617187,-1.62109 0,-0.89453 0.722656,-1.61719 1.617187,-1.61719 0.894531,0 1.621094,0.72266 1.621094,1.61719"
       id="path830"
       clip-path="url(#clipPath8158)"
       transform="matrix(0.35277777,0,0,0.35277777,56.677136,-0.46376423)" />
    <path
       style="clip-rule:nonzero;fill:#0f0c0c;fill-opacity:1;fill-rule:nonzero;stroke:none"
       d="m 48.34375,339.34766 c 0,0.89453 -0.726562,1.62109 -1.621094,1.62109 -0.894531,0 -1.621094,-0.72656 -1.621094,-1.62109 0,-0.89454 0.726563,-1.61719 1.621094,-1.61719 0.894532,0 1.621094,0.72265 1.621094,1.61719"
       id="path834"
       clip-path="url(#clipPath6423)"
       transform="matrix(0.35277777,0,0,0.35277777,56.677136,-0.46376423)" />
    <path
       style="fill:#0f0c0c;fill-opacity:1;fill-rule:nonzero;stroke:none;stroke-width:0.352778"
       d="m 73.741383,114.56108 c 0,0.31557 -0.256316,0.57189 -0.570508,0.57189 -0.316949,0 -0.571886,-0.25632 -0.571886,-0.57189 0,-0.31557 0.254937,-0.57051 0.571886,-0.57051 0.314192,0 0.570508,0.25494 0.570508,0.57051"
       id="path838" />
    <g
       id="use840"
       clip-path="url(#clip8)"
       transform="matrix(0.35277777,0,0,0.35277777,77.843802,113.83623)">
      <g
         clip-path="url(#clip9)"
         clip-rule="nonzero"
         id="g9099">
        <path
           style="fill:#ffffff;fill-opacity:1;fill-rule:nonzero;stroke:none"
           d="M 0.128906,1.875 C 0.207031,1.90625 0.261719,1.964844 0.277344,2.046875 L 1.300781,1.886719 c -0.011719,-0.0625 -0.00391,-0.125 -0.023437,-0.1875 H 1.28125 C 1.167969,1.320312 0.886719,1.039062 0.527344,0.898438 Z m 0,0"
           id="path9097" />
      </g>
    </g>
    <g
       id="use842"
       clip-path="url(#clip10)"
       transform="matrix(0.35277777,0,0,0.35277777,77.843802,118.77512)">
      <g
         clip-path="url(#clip11)"
         clip-rule="nonzero"
         id="g9093">
        <path
           style="fill:#ffffff;fill-opacity:1;fill-rule:nonzero;stroke:none"
           d="M 0.101562,1.167969 C 0.179688,1.195312 0.238281,1.257812 0.253906,1.339844 L 1.273438,1.183594 C 1.261719,1.121094 1.269531,1.054688 1.253906,0.996094 L 1.257812,0.992188 C 1.140625,0.617188 0.859375,0.335938 0.5,0.191406 Z m 0,0"
           id="path9091" />
      </g>
    </g>
    <g
       id="use844"
       clip-path="url(#clip12)"
       transform="matrix(0.35277777,0,0,0.35277777,72.904913,118.77512)">
      <g
         clip-path="url(#clip13)"
         clip-rule="nonzero"
         id="g9087">
        <path
           style="fill:#ffffff;fill-opacity:1;fill-rule:nonzero;stroke:none"
           d="M 0.808594,1.140625 C 0.886719,1.171875 0.945312,1.230469 0.957031,1.3125 L 1.976562,1.15625 c -0.011718,-0.0625 0,-0.128906 -0.019531,-0.1875 L 1.964844,0.964844 C 1.847656,0.589844 1.566406,0.304688 1.207031,0.164062 Z m 0,0"
           id="path9085" />
      </g>
    </g>
    <g
       id="use846"
       clip-path="url(#clip14)"
       transform="matrix(0.35277777,0,0,0.35277777,72.904913,113.83623)">
      <g
         clip-path="url(#clip15)"
         clip-rule="nonzero"
         id="g9081">
        <path
           style="fill:#ffffff;fill-opacity:1;fill-rule:nonzero;stroke:none"
           d="M 0.835938,1.84375 C 0.914062,1.878906 0.96875,1.933594 0.984375,2.019531 L 2.007812,1.859375 c -0.015624,-0.0625 -0.00391,-0.125 -0.023437,-0.1875 h 0.00391 C 1.875,1.292969 1.59375,1.011719 1.234375,0.867188 Z m 0,0"
           id="path9079" />
      </g>
    </g>
    <path
       style="fill:#333030;fill-opacity:1;fill-rule:nonzero;stroke:none;stroke-width:0.352778"
       d="m 77.426257,116.8941 c 0,1.06247 -0.861274,1.92374 -1.923742,1.92374 -1.061089,0 -1.922363,-0.86127 -1.922363,-1.92374 0,-1.06247 0.861274,-1.92374 1.922363,-1.92374 1.062468,0 1.923742,0.86127 1.923742,1.92374"
       id="path848" />
    <path
       style="fill:#423f3f;fill-opacity:1;fill-rule:nonzero;stroke:none;stroke-width:0.352778"
       d="m 77.141003,116.89686 c 0,0.91088 -0.738629,1.64951 -1.649512,1.64951 -0.910883,0 -1.648134,-0.73863 -1.648134,-1.64951 0,-0.91089 0.737251,-1.64952 1.648134,-1.64952 0.910883,0 1.649512,0.73863 1.649512,1.64952"
       id="path850" />
    <g
       id="use852"
       clip-path="url(#clip16)"
       transform="matrix(0.35277777,0,0,0.35277777,76.079913,115.24734)">
      <g
         clip-path="url(#clip17)"
         clip-rule="nonzero"
         id="g9075">
        <path
           style="fill:#ffffff;fill-opacity:1;fill-rule:nonzero;stroke:none"
           d="M 0.0820312,0.34375 C 1.695312,1.125 2.816406,2.765625 2.816406,4.675781 c 0,1.910157 -1.121094,3.546875 -2.7343748,4.328125 C 1.796875,8.308594 3.007812,6.636719 3.007812,4.675781 3.007812,2.710938 1.796875,1.039062 0.0820312,0.34375"
           id="path9073" />
      </g>
    </g>
  </g>
</svg>
